<svg width="16" height="16" viewBox="0 0 16 16" fill="none" xmlns="http://www.w3.org/2000/svg">
<path d="M14.5 13.457L9.94703 8.88701C10.6384 7.91369 10.9322 6.71313 10.7683 5.53054C10.6043 4.34795 9.99512 3.27255 9.06503 2.52401C8.13595 1.77778 6.95562 1.41717 5.76813 1.51674C4.58065 1.61632 3.47685 2.16847 2.68503 3.05901C1.89093 3.95142 1.46772 5.11345 1.50192 6.30753C1.53612 7.5016 2.02516 8.63751 2.86903 9.48301C3.65228 10.2736 4.69492 10.7543 5.80473 10.8366C6.91454 10.919 8.0167 10.5973 8.90803 9.93101L13.46 14.5L14.499 13.457H14.5ZM3.58603 8.76301C2.90388 8.0717 2.52258 7.13882 2.5252 6.16762C2.52782 5.19643 2.91416 4.26562 3.60003 3.57801C3.93906 3.2383 4.34175 2.9688 4.78506 2.78492C5.22837 2.60103 5.70359 2.50638 6.18353 2.50638C6.66346 2.50638 7.13869 2.60103 7.582 2.78492C8.02531 2.9688 8.428 3.2383 8.76703 3.57801C9.45303 4.26549 9.83955 5.19622 9.84235 6.16742C9.84516 7.13861 9.46404 8.07157 8.78203 8.76301C8.44302 9.10821 8.03864 9.3824 7.59248 9.56957C7.14633 9.75675 6.66735 9.85315 6.18353 9.85315C5.6997 9.85315 5.22073 9.75675 4.77457 9.56957C4.32842 9.3824 3.92403 9.10821 3.58503 8.76301H3.58603Z" fill="#1F1F1F" fill-opacity="0.3"/>
</svg>
