<svg width="16" height="16" viewBox="0 0 16 16" fill="none" xmlns="http://www.w3.org/2000/svg">
<path d="M9.14987 8.08945C9.12636 8.066 9.11315 8.03416 9.11315 8.00096C9.11315 7.96775 9.12636 7.93591 9.14987 7.91246L13.7813 3.28165C14.0741 2.9884 14.0738 2.51328 13.7805 2.22045C13.4873 1.92761 13.0121 1.92794 12.7193 2.2212L8.08839 6.85C8.06494 6.87351 8.0331 6.88673 7.99989 6.88673C7.96669 6.88673 7.93484 6.87351 7.91139 6.85L3.28049 2.2212C2.98765 1.92822 2.51275 1.92811 2.21976 2.22095C1.92678 2.51378 1.92667 2.98868 2.21951 3.28165L6.84992 7.91246C6.87343 7.93591 6.88664 7.96775 6.88664 8.00096C6.88664 8.03416 6.87343 8.066 6.84992 8.08945L2.21951 12.7208C2.03008 12.9103 1.95614 13.1865 2.02556 13.4453C2.09497 13.7041 2.2972 13.9062 2.55605 13.9755C2.8149 14.0448 3.09106 13.9707 3.28049 13.7812L7.91139 9.14991C7.93484 9.1264 7.96669 9.11319 7.99989 9.11319C8.0331 9.11319 8.06494 9.1264 8.08839 9.14991L12.7193 13.7812C13.0121 14.0742 13.487 14.0743 13.78 13.7815C14.073 13.4886 14.0731 13.0137 13.7803 12.7208L9.14987 8.08945Z" fill="#1F1F1F"/>
</svg>
