<svg width="26" height="8" viewBox="0 0 26 8" fill="none" xmlns="http://www.w3.org/2000/svg">
<path fill-rule="evenodd" clip-rule="evenodd" d="M3.42578 7.16224C5.1577 7.16224 6.56189 5.75848 6.56189 4.0271C6.56189 2.29572 5.1577 0.891968 3.42578 0.891968C1.69387 0.891968 0.289673 2.29572 0.289673 4.0271C0.289673 5.75848 1.69387 7.16224 3.42578 7.16224Z" fill="#F2F2F2"/>
<path fill-rule="evenodd" clip-rule="evenodd" d="M12.8341 7.16224C14.566 7.16224 15.9702 5.75848 15.9702 4.0271C15.9702 2.29572 14.566 0.891968 12.8341 0.891968C11.1022 0.891968 9.698 2.29572 9.698 4.0271C9.698 5.75848 11.1022 7.16224 12.8341 7.16224Z" fill="#F2F2F2"/>
<path fill-rule="evenodd" clip-rule="evenodd" d="M22.2424 7.16224C23.9744 7.16224 25.3785 5.75848 25.3785 4.0271C25.3785 2.29572 23.9744 0.891968 22.2424 0.891968C20.5105 0.891968 19.1063 2.29572 19.1063 4.0271C19.1063 5.75848 20.5105 7.16224 22.2424 7.16224Z" fill="#F2F2F2"/>
</svg>
