<svg width="48" height="48" viewBox="0 0 48 48" fill="none" xmlns="http://www.w3.org/2000/svg">
<path fill-rule="evenodd" clip-rule="evenodd" d="M29.7204 29.3024C28.2072 30.9013 26.0746 31.9054 23.7069 31.9054C19.1438 31.9054 15.4432 28.2208 15.4432 23.6756C15.4432 19.1305 19.1438 15.4459 23.7069 15.4459V0.162109C10.7312 0.162109 0.107666 10.7455 0.107666 23.6756C0.107666 36.6057 10.7312 47.1891 23.7069 47.1891C30.5201 47.1891 36.6747 44.3158 40.8771 39.7448L29.7204 29.3024Z" fill="#F2F2F2"/>
<path fill-rule="evenodd" clip-rule="evenodd" d="M23.6285 0.162109V15.4459C28.1759 15.4459 31.8608 19.1305 31.8608 23.6756H47.1494C47.1494 10.7455 36.565 0.162109 23.6285 0.162109Z" fill="#AFB9C5"/>
<path fill-rule="evenodd" clip-rule="evenodd" d="M31.5472 23.6757C31.5472 26.346 30.2849 28.7193 28.3327 30.2524L37.9449 42.4865C43.5428 38.1067 47.1494 31.3168 47.1494 23.6757H31.5472Z" fill="#C5CFD6"/>
</svg>
