<svg width="37" height="37" viewBox="0 0 37 37" fill="none" xmlns="http://www.w3.org/2000/svg">
<path fill-rule="evenodd" clip-rule="evenodd" d="M23.1914 23.2328C22.0326 24.4587 20.3909 25.2283 18.5649 25.2283C15.0563 25.2283 12.2126 22.4036 12.2126 18.9189C12.2126 15.4342 15.0563 12.6094 18.5649 12.6094V0.891846C8.5842 0.891846 0.414612 9.00558 0.414612 18.9189C0.414612 28.8322 8.5842 36.9459 18.5649 36.9459C23.8077 36.9459 28.5455 34.7427 31.7757 31.2384L23.1914 23.2328Z" fill="#F2F2F2"/>
<path fill-rule="evenodd" clip-rule="evenodd" d="M18.4473 0.891846V12.6094C21.9331 12.6094 24.7587 15.4342 24.7587 18.9189H36.4799C36.4799 9.00558 28.3636 0.891846 18.4473 0.891846Z" fill="#AFB9C5"/>
<path fill-rule="evenodd" clip-rule="evenodd" d="M24.7767 18.9188C24.7767 20.9214 23.8327 22.7021 22.3674 23.8512L29.5773 33.0269C33.775 29.7421 36.4799 24.6499 36.4799 18.9188H24.7767Z" fill="#C5CFD6"/>
</svg>
