<svg width="56" height="153" viewBox="0 0 56 153" fill="none" xmlns="http://www.w3.org/2000/svg">
<path d="M49.066 0.51355H6.72852C3.26447 0.51355 0.456299 3.32085 0.456299 6.78382V146.297C0.456299 149.76 3.26447 152.568 6.72852 152.568H49.066C52.5301 152.568 55.3382 149.76 55.3382 146.297V6.78382C55.3382 3.32085 52.5301 0.51355 49.066 0.51355Z" fill="white"/>
<path d="M38.0896 14.6217H17.7049C15.9729 14.6217 14.5688 16.0254 14.5688 17.7568V31.8649C14.5688 33.5964 15.9729 35.0001 17.7049 35.0001H38.0896C39.8216 35.0001 41.2257 33.5964 41.2257 31.8649V17.7568C41.2257 16.0254 39.8216 14.6217 38.0896 14.6217Z" fill="#DDE3E9"/>
<path d="M38.0896 41.2704H17.7049C15.9729 41.2704 14.5688 42.674 14.5688 44.4055V57.7298C14.5688 59.4613 15.9729 60.865 17.7049 60.865H38.0896C39.8216 60.865 41.2257 59.4613 41.2257 57.7298V44.4055C41.2257 42.674 39.8216 41.2704 38.0896 41.2704Z" fill="#AFB9C5"/>
<path d="M38.0896 67.1353H17.7049C15.9729 67.1353 14.5688 68.5389 14.5688 70.2704V83.5947C14.5688 85.3262 15.9729 86.7298 17.7049 86.7298H38.0896C39.8216 86.7298 41.2257 85.3262 41.2257 83.5947V70.2704C41.2257 68.5389 39.8216 67.1353 38.0896 67.1353Z" fill="#DDE3E9"/>
<path d="M38.0896 118.865H17.7049C15.9729 118.865 14.5688 120.269 14.5688 122V135.324C14.5688 137.056 15.9729 138.46 17.7049 138.46H38.0896C39.8216 138.46 41.2257 137.056 41.2257 135.324V122C41.2257 120.269 39.8216 118.865 38.0896 118.865Z" fill="#DDE3E9"/>
<path d="M38.0896 93.0001H17.7049C15.9729 93.0001 14.5688 94.4038 14.5688 96.1353V109.46C14.5688 111.191 15.9729 112.595 17.7049 112.595H38.0896C39.8216 112.595 41.2257 111.191 41.2257 109.46V96.1353C41.2257 94.4038 39.8216 93.0001 38.0896 93.0001Z" fill="#C5CFD6"/>
</svg>
