<svg width="29" height="28" viewBox="0 0 29 28" fill="none" xmlns="http://www.w3.org/2000/svg">
<ellipse cx="14.3962" cy="14" rx="13.8337" ry="14" fill="#1E293B"/>
<path d="M20.5298 10.9831C20.1157 11.1693 19.6787 11.2857 19.2186 11.3556C19.6787 11.0762 20.0467 10.6339 20.2077 10.0985C19.7707 10.3546 19.2876 10.5408 18.7586 10.6572C18.3445 10.2149 17.7464 9.93555 17.1024 9.93555C15.8602 9.93555 14.8481 10.9598 14.8481 12.2169C14.8481 12.4031 14.8711 12.5661 14.9171 12.729C13.0539 12.6359 11.3747 11.728 10.2476 10.3313C10.0636 10.6805 9.94858 11.0529 9.94858 11.472C9.94858 12.2634 10.3396 12.9618 10.9607 13.3808C10.5926 13.3576 10.2476 13.2644 9.92557 13.1015V13.1248C9.92557 14.2422 10.7077 15.1733 11.7428 15.3828C11.5588 15.4294 11.3517 15.4527 11.1447 15.4527C11.0067 15.4527 10.8457 15.4294 10.7077 15.4061C11.0067 16.314 11.8348 16.9891 12.8239 16.9891C12.0418 17.5943 11.0757 17.9668 10.0176 17.9668C9.83356 17.9668 9.64954 17.9668 9.48853 17.9435C10.5006 18.5953 11.6738 18.9678 12.9619 18.9678C17.1254 18.9678 19.4026 15.476 19.4026 12.4497C19.4026 12.3566 19.4026 12.2402 19.4026 12.1471C19.8397 11.8444 20.2307 11.4487 20.5298 10.9831Z" fill="white"/>
</svg>
