<svg width="86" height="36" viewBox="0 0 86 36" fill="none" xmlns="http://www.w3.org/2000/svg">
<path fill-rule="evenodd" clip-rule="evenodd" d="M6.72173 12.6402C5.53863 13.598 4.37826 14.577 3.24612 15.5943C2.38291 16.371 0.855623 17.2998 0.545932 18.4755C0.223696 19.6966 1.24058 20.8402 2.04343 21.5785C6.29051 25.4849 11.0731 28.1262 16.958 28.5652C26.0198 29.2416 33.9063 26.9278 41.7685 22.3764C47.2912 19.1786 50.9495 14.4492 51.7484 8.06292C58.3256 10.7952 64.6865 14.5621 70.0923 19.1848C72.7596 21.4656 75.0568 23.9933 77.1815 26.7938C78.5426 28.5887 79.859 30.4118 81.0805 32.3054C81.6113 33.1283 82.1515 34.587 83.028 35.0604C84.0574 35.6176 85.3017 34.7445 85.2507 33.601C85.2076 32.6487 84.1797 31.5443 83.6983 30.766C82.9002 29.4735 82.0895 28.1897 81.2357 26.9325C79.8543 24.8978 78.4265 22.8913 76.8695 20.9867C73.3696 16.7081 68.9171 13.1732 64.3015 10.1588C55.4467 4.37602 45.7287 0.732977 34.9546 0.424167C28.3295 0.234491 22.7567 2.49729 17.0913 5.87619C13.5639 7.98065 9.92292 10.049 6.72173 12.6402Z" fill="#DDE3E9"/>
</svg>
