<svg width="81" height="48" viewBox="0 0 81 48" fill="none" xmlns="http://www.w3.org/2000/svg">
<path fill-rule="evenodd" clip-rule="evenodd" d="M34.7962 0.756714C40.6584 0.756714 45.8754 1.51855 51.2765 3.84717C55.9391 5.85757 60.1846 8.51852 64.3164 11.4154C70.1182 15.4903 74.6892 20.2322 77.888 26.5158C79.801 30.2693 81.2044 35.581 79.9186 39.6755C78.4054 44.4974 74.2501 48.5197 68.7854 47.6701C65.4062 47.1449 62.3015 44.9073 59.7338 42.8012C56.6589 40.2814 54.1978 37.2521 52.1656 33.8873C48.8507 28.3984 46.9032 22.194 44.087 16.4583C42.751 13.7362 41.4597 10.9953 39.8587 8.40801C39.0669 7.1273 38.2232 5.85837 37.0213 4.90607C36.3784 4.39661 33.6673 3.51564 34.7037 2.3721C19.5014 2.57118 6.0334 14.2433 3.11446 28.6915C2.84319 30.0381 2.63072 31.3956 2.40571 32.7508C2.26458 33.6059 2.32181 36.7614 1.5566 37.3077C-0.130627 38.5131 0.578159 34.8505 0.651073 34.323C0.838456 32.96 1.03756 31.5986 1.24689 30.2387C2.38687 22.8445 5.6798 15.9708 11.1711 10.6975C17.4504 4.66781 25.9234 0.756714 34.7962 0.756714Z" fill="#89C5CC"/>
</svg>
