<svg width="70" height="96" viewBox="0 0 70 96" fill="none" xmlns="http://www.w3.org/2000/svg">
<path fill-rule="evenodd" clip-rule="evenodd" d="M67.4531 1.0848C64.7795 0.500881 61.8237 0.545545 59.1031 0.593356C44.4967 0.792437 30.1467 7.70698 20.8105 18.7552C12.862 28.1606 10.6761 39.8547 9.10572 51.6757C8.95049 52.849 8.88383 54.0153 8.79602 55.1917C8.7772 55.4441 8.74898 55.6691 8.7184 55.8815C8.10137 56.4333 7.77678 57.0767 8.14292 57.7837C6.78263 60.7597 5.63171 63.811 4.64384 66.9587C1.73745 76.223 -1.21836 85.6637 0.602153 95.4053C1.02788 90.0443 1.92323 84.5625 2.99343 79.2892C3.05458 78.9866 3.12125 78.6864 3.19025 78.387C3.19809 78.3557 3.20434 78.3235 3.2114 78.2922C3.59008 76.6776 4.08245 75.1116 4.68145 73.5699C4.68772 73.5527 4.69399 73.5362 4.70026 73.5197C4.77944 73.3167 4.86336 73.1145 4.94646 72.9131C5.11817 72.4953 5.29458 72.0784 5.48117 71.6638C5.54468 71.5219 5.60503 71.3792 5.66383 71.2358C6.53567 69.0992 6.90338 66.6914 7.68506 64.4812C7.87166 63.9788 8.06687 63.4779 8.2715 62.9794C8.28404 62.9504 8.29585 62.9214 8.30839 62.8924C8.86192 61.5514 9.47267 60.2276 10.1195 58.9171C10.4707 58.6529 10.6581 57.9985 10.9615 57.4036C11.0235 57.286 11.5135 56.5046 11.6593 56.0539C12.0404 55.3179 12.419 54.582 12.8024 53.8468C12.7915 53.8515 12.7797 53.8554 12.7679 53.8601C13.1513 53.1539 13.5363 52.4516 13.9181 51.7517C14.002 51.5981 14.0867 51.4445 14.1713 51.2901C14.3085 51.0447 14.4457 50.7994 14.5821 50.5549C15.8617 48.2654 17.2189 46.0223 18.6278 43.8065C19.1311 43.0157 20.3322 41.8815 20.5627 40.9943C20.5713 40.9606 20.5729 40.93 20.5784 40.8987C23.6361 36.6051 27.1556 32.6454 31.3776 29.5079C30.8672 30.0597 29.7821 31.9306 29.496 32.3013C28.6178 33.4355 27.6652 34.4912 26.7095 35.5603C24.9964 37.4751 23.3249 39.4502 21.8391 41.539C19.1217 45.3592 16.7782 49.3792 14.5618 53.4808C14.5414 53.5043 14.5179 53.527 14.4983 53.5521C13.3842 54.9245 12.6833 56.9984 11.882 58.5683C15.0542 57.0995 18.5627 56.1425 21.8179 54.8383C25.0654 53.538 28.2234 52.0895 31.2733 50.3895C35.326 48.1291 39.5307 45.5779 43.3599 42.6904C47.7505 39.9691 51.4354 36.2234 54.6891 32.2927C58.5465 27.6417 62.0747 22.9508 64.2543 17.3036C65.3284 14.529 66.1673 11.6353 66.669 8.70787C66.6926 8.58089 66.7239 8.44219 66.7474 8.29875C67.2649 7.28767 67.7197 6.25386 68.1039 5.19653C68.7154 3.51923 70.1501 1.67421 67.4531 1.0848Z" fill="#69A1AC"/>
</svg>
