<svg width="103" height="174" viewBox="0 0 103 174" fill="none" xmlns="http://www.w3.org/2000/svg">
<path fill-rule="evenodd" clip-rule="evenodd" d="M100.949 3.59198C97.8521 1.49536 93.7438 0.945923 90.0432 0.945923C75.5857 0.945923 61.9993 6.30701 50.2624 14.2953C43.8311 18.672 38.0779 24.2462 32.9989 30.0494C30.0667 33.4001 27.4527 37.0235 25.6016 41.0545C24.3527 43.775 23.4957 46.6099 22.9148 49.5335C22.2068 53.0965 21.6439 56.7317 21.3898 60.3544C21.2895 61.7809 20.4608 69.3499 22.8332 69.4784C22.8191 69.6649 22.816 69.8429 22.8309 70.002C17.679 78.0546 14.4967 87.4913 11.5448 96.4382C8.9771 104.224 6.68852 112.075 5.20357 120.13C3.24742 130.734 1.96319 141.499 1.35243 152.255C1.2215 154.567 1.13135 156.88 1.05373 159.194C0.987875 161.169 0.921221 163.143 0.856147 165.118C0.784017 167.331 0.394343 169.878 0.746372 172.077C1.05293 173.993 2.71113 173.703 2.78482 171.797C2.87342 169.495 2.85854 167.188 2.95968 164.885C3.09375 161.827 3.23176 158.769 3.38151 155.713C4.42348 134.478 8.33182 113.556 15.5457 93.4982C18.4654 85.3814 21.81 77.698 26.1096 70.1893C29.8894 63.5875 34.4368 57.1957 39.0845 51.2437C43.6013 45.4586 48.2985 39.8083 53.8329 34.9073C58.3246 30.9303 63.2655 27.4652 68.3413 24.2415C74.7939 20.147 81.2308 16.1521 88.2243 13.0091C91.8543 11.3757 95.555 9.91319 99.2164 8.34484C99.8749 8.06347 100.581 7.78992 101.216 7.46309C103.325 6.37363 102.627 4.73317 100.949 3.59198Z" fill="#C1DEE2"/>
</svg>
