<svg width="49" height="45" viewBox="0 0 49 45" fill="none" xmlns="http://www.w3.org/2000/svg">
<path d="M4.94452 27.7027C4.94452 26.4041 3.89146 25.3513 2.59244 25.3513C1.29342 25.3513 0.240356 26.4041 0.240356 27.7027V42.5946C0.240356 43.8932 1.29342 44.9459 2.59244 44.9459C3.89146 44.9459 4.94452 43.8932 4.94452 42.5946V27.7027Z" fill="#DDE3E9"/>
<path d="M15.9209 15.1621C15.9209 13.8635 14.8678 12.8108 13.5688 12.8108C12.2698 12.8108 11.2167 13.8635 11.2167 15.1621V42.5946C11.2167 43.8932 12.2698 44.9459 13.5688 44.9459C14.8678 44.9459 15.9209 43.8932 15.9209 42.5946V15.1621Z" fill="#DDE3E9"/>
<path d="M26.8973 8.89188C26.8973 7.59326 25.8442 6.54053 24.5452 6.54053C23.2462 6.54053 22.1931 7.59326 22.1931 8.89188V42.5946C22.1931 43.8932 23.2462 44.9459 24.5452 44.9459C25.8442 44.9459 26.8973 43.8932 26.8973 42.5946V8.89188Z" fill="#DDE3E9"/>
<path d="M37.8737 15.1621C37.8737 13.8635 36.8206 12.8108 35.5216 12.8108C34.2226 12.8108 33.1695 13.8635 33.1695 15.1621V42.5946C33.1695 43.8932 34.2226 44.9459 35.5216 44.9459C36.8206 44.9459 37.8737 43.8932 37.8737 42.5946V15.1621Z" fill="#DDE3E9"/>
<path d="M48.85 2.62161C48.85 1.323 47.797 0.270264 46.498 0.270264C45.1989 0.270264 44.1459 1.323 44.1459 2.62161V42.5946C44.1459 43.8932 45.1989 44.9459 46.498 44.9459C47.797 44.9459 48.85 43.8932 48.85 42.5946V2.62161Z" fill="#C5CFD6"/>
</svg>
