<svg width="44" height="64" viewBox="0 0 44 64" fill="none" xmlns="http://www.w3.org/2000/svg">
<path fill-rule="evenodd" clip-rule="evenodd" d="M10.3722 0.324341C9.33337 0.324341 8.29768 0.345504 7.26041 0.398801C6.46933 0.440342 5.26113 0.276525 4.59235 0.769525C3.89692 1.28134 3.94474 2.32848 4.05372 3.06837C4.62762 6.98102 6.02868 10.45 8.96016 13.2223C13.4738 17.49 18.6476 19.6587 24.7701 20.6243C29.0713 21.3031 33.0416 20.361 36.2075 17.3034C38.5211 21.5954 40.2758 26.3452 41.1563 31.1388C41.5906 33.5043 41.7231 35.8415 41.6471 38.2501C41.5977 39.7926 41.513 41.3319 41.3476 42.8673C41.2754 43.5343 40.9352 44.5438 41.1963 45.1748C41.5028 45.9147 42.537 45.9868 43.0011 45.3551C43.3876 44.8299 43.317 43.7977 43.3962 43.1762C43.5279 42.1431 43.6495 41.1093 43.7365 40.0716C43.8784 38.3919 43.9827 36.7076 43.9756 35.0209C43.9576 31.2329 43.1148 27.4299 41.9622 23.8339C39.7513 16.9343 36.1644 10.8027 30.5852 5.99187C27.1543 3.03387 23.2279 1.83626 18.7739 1.19277C16 0.792261 13.1814 0.324341 10.3722 0.324341Z" fill="#89C5CC"/>
<path fill-rule="evenodd" clip-rule="evenodd" d="M26.3907 27.7567C15.1799 27.7567 7.62968 36.7891 4.06 46.1772C2.71382 49.7152 2.39866 53.6012 1.87964 57.3163C1.71342 58.5092 1.77535 60.3261 1.29082 61.3881C1.1152 61.7737 0.712209 61.9117 0.90508 62.4368C1.0219 62.7542 1.25005 62.9494 1.59424 63.0121C2.29908 63.1422 3.29635 62.3741 3.90084 62.0716C8.91548 59.5572 12.21 55.6696 14.8976 50.9136C16.5645 47.9658 18.2548 44.9051 19.2443 41.6689C19.8488 39.6914 20.2008 37.6097 20.4078 35.5585C20.4893 34.7504 20.5677 33.9235 20.563 33.1115C20.5583 32.305 20.1828 31.8786 19.9131 31.1772C23.6537 29.7616 27.8764 29.376 31.6656 30.8425C35.1702 32.1992 38.0813 34.821 39.7113 38.1152C40.1347 38.9711 40.4616 39.874 40.6992 40.7957C40.8552 41.3992 40.8623 42.1815 41.1516 42.727C41.8509 44.05 43.3233 43.1659 43.1822 41.9346C42.7878 38.5008 40.8231 35.053 38.3111 32.6656C35.1428 29.6543 30.8494 27.7567 26.3907 27.7567Z" fill="#89C5CC"/>
</svg>
