<svg width="449" height="385" viewBox="0 0 449 385" fill="none" xmlns="http://www.w3.org/2000/svg">
<path fill-rule="evenodd" clip-rule="evenodd" d="M73.8127 129.079C79.5157 132.518 85.1191 134.179 87.7495 133.501C94.3455 131.801 94.9524 107.661 89.8484 98.1442C84.7451 88.6283 58.5084 84.4797 57.1858 103.335C56.7263 109.879 59.4736 115.72 63.5317 120.485L56.2551 154.415H77.3925L73.8127 129.079Z" fill="#B28B67"/>
<path fill-rule="evenodd" clip-rule="evenodd" d="M47.9703 97.0587C47.2874 96.3823 46.915 95.4159 46.5928 94.4988C46.2588 93.5458 45.9334 92.5833 45.7115 91.591C45.2677 89.6096 45.263 87.3304 46.6767 85.7918C47.8096 84.5581 49.5101 84.004 51.0797 83.8841C52.1256 83.8041 53.1998 83.9499 54.2017 84.2799C55.1959 84.6067 56.0536 85.2588 57.0172 85.6633C57.054 83.5275 57.4202 81.2929 58.5029 79.4698C59.5449 77.7149 61.207 76.7305 63.0989 76.4703C65.0409 76.203 66.9594 76.6576 68.6976 77.5981C69.1328 77.8333 69.5648 78.0801 69.9772 78.3599C70.3229 78.5935 70.682 78.8757 71.0874 78.9705C71.5397 79.0763 71.7632 78.8153 72.0572 78.4854C72.4014 78.099 72.7895 77.758 73.2003 77.4563C75.0161 76.1207 77.3988 75.572 79.5023 76.3723C80.4714 76.7407 81.4146 77.3669 82.0716 78.2299C82.6581 78.9995 83.0759 80.2199 83.885 80.7552C84.2285 80.9833 84.4707 80.6815 84.7835 80.4589C85.2532 80.1243 85.7009 79.7543 86.176 79.429C86.8432 78.9713 87.5661 78.6296 88.3399 78.4501C89.4728 78.1883 91.0385 78.2495 91.3623 79.7339C91.4838 80.2912 91.3913 80.8877 91.3514 81.4496C91.298 82.2209 91.2416 82.9921 91.1742 83.7626C91.124 84.3473 91.0597 84.9124 90.9491 85.4869C90.8903 85.7926 90.7061 86.3632 90.837 86.6704C91.0017 87.0537 91.7582 86.8358 92.0813 86.8491C92.7202 86.875 93.3616 86.9871 93.9519 87.2598C94.4098 87.4722 94.8912 87.7834 95.0841 88.3077C95.2033 88.6299 95.1719 88.9614 95.1154 89.293C95.048 89.6911 95.1257 89.902 95.1758 90.304C96.0336 89.8816 99.0058 88.9426 99.3798 90.4804C99.5045 90.9922 99.2206 91.5706 99.0042 92.0025C98.6248 92.7604 98.1277 93.4525 97.6188 94.1132C96.558 95.4903 95.2919 96.6785 93.9292 97.6943C95.5255 98.4044 95.9426 100.499 94.5596 101.747C93.9496 102.298 93.1287 102.421 92.3588 102.385C92.0773 102.372 91.6712 102.264 91.4494 102.313C91.3302 102.339 91.2024 102.44 91.037 102.452C89.9503 102.526 88.724 102.265 87.6617 102.023C85.7698 101.594 83.9776 100.696 82.5146 99.3301C82.139 98.9797 81.8293 98.7783 81.3244 98.783C80.8814 98.7877 80.4471 98.9092 80.0049 98.9202C78.8343 98.95 77.779 98.3778 76.6924 97.9969C76.6265 99.4657 76.2078 101.083 75.6072 102.404C75.118 103.482 74.0957 103.639 73.0905 103.733C69.8768 104.035 66.6521 103.697 63.4352 103.702C66.5494 104.407 69.7678 104.697 72.8545 105.525C74.2501 105.9 73.1846 106.841 72.588 107.493C71.6056 108.567 70.8749 109.898 70.3684 111.299C68.8451 109.312 66.1519 108.003 63.7661 108.614C61.1302 109.288 59.2736 112.854 60.9593 115.419C61.9377 116.907 63.7049 117.482 65.1758 118.121C64.0287 119.314 63.7512 121.076 63.0605 122.561C62.7202 123.293 62.242 124.12 61.4807 124.376C61.1984 124.47 60.8684 124.479 60.6457 124.708C60.3705 124.993 60.3054 125.311 59.9534 125.556C58.55 126.531 56.3586 126.456 55.1144 125.182C53.9901 124.03 54.2825 122.208 55.2218 121.04C53.7266 120.416 51.0021 119.614 51.5964 117.284C48.3568 117.069 40.4899 111.812 44.8381 107.971C42.4515 106.621 40.2594 103.323 41.7921 100.416C42.9729 98.1779 45.7178 97.1778 47.9703 97.0587Z" fill="#191847"/>
<path fill-rule="evenodd" clip-rule="evenodd" d="M25.0971 265.43H93.1374L102.053 374.682H0.769531L25.0971 265.43Z" fill="#C5CFD6"/>
<path fill-rule="evenodd" clip-rule="evenodd" d="M25.0971 265.43H46.0236L58.5484 374.682H0.769531L25.0971 265.43Z" fill="black" fill-opacity="0.1"/>
<path fill-rule="evenodd" clip-rule="evenodd" d="M130.521 287.075C122.875 303.297 110.927 342.675 110.927 342.675L121.07 347.311C121.07 347.311 146.806 305.917 162.534 277.621C161.801 283.99 161.055 291.162 160.363 298.701C158.724 316.561 160.362 355.146 161.244 366.292C161.798 373.297 171.313 371.83 172.2 366.274C172.351 365.333 172.964 362.029 173.879 357.1C178.364 332.931 190.104 269.675 190.125 254.186C190.133 247.954 177.962 242.355 170.708 246.713C165.725 241.393 156.294 238.328 150.876 247.114C147.432 252.7 139.248 268.558 130.521 287.075Z" fill="#B28B67"/>
<path fill-rule="evenodd" clip-rule="evenodd" d="M111.652 328.096L146.465 245.594C154.805 232.174 178.188 248.326 175.344 256.11C168.887 273.782 136.048 330.994 134.125 336.259L111.652 328.096Z" fill="#1F28CF"/>
<path fill-rule="evenodd" clip-rule="evenodd" d="M112.201 337.67C111.662 336.927 110.611 336.752 109.906 337.34C108.465 338.543 106.263 340.504 105.487 341.848C104.296 343.912 102.698 348.268 102.698 348.268C105.092 349.651 145.717 373.116 145.717 373.116C145.717 373.116 150.595 368.539 147.237 366.009C143.88 363.481 141.695 361.744 141.695 361.744L126.789 341.198C126.529 340.84 126.026 340.767 125.675 341.036L122.512 343.474C122.512 343.474 118.266 343.103 116.175 341.895C114.85 341.13 113.218 339.074 112.201 337.67Z" fill="#E4E4E4"/>
<path fill-rule="evenodd" clip-rule="evenodd" d="M161.265 360.75C160.427 360.376 159.429 360.75 159.113 361.612C158.466 363.375 157.538 366.175 157.538 367.727C157.538 370.11 158.332 374.682 158.332 374.682C161.095 374.682 208.006 374.682 208.006 374.682C208.006 374.682 209.943 368.279 205.771 367.767C201.599 367.257 198.84 366.846 198.84 366.846L175.661 356.508C175.257 356.328 174.785 356.517 174.617 356.925L173.095 360.619C173.095 360.619 169.233 362.422 166.818 362.422C165.288 362.422 162.848 361.457 161.265 360.75Z" fill="#E4E4E4"/>
<path fill-rule="evenodd" clip-rule="evenodd" d="M192.565 260.525C192.565 283.932 181.453 338.532 181.446 343.686L157.538 343.705C157.538 343.705 162.787 270.626 161.261 269.838C159.734 269.051 98.6845 275.936 80.3751 275.936C53.9721 275.936 43.0498 259.28 42.1631 228.425H94.4664C105.116 229.564 160.664 240.773 181.294 244.626C190.125 246.275 192.565 254.076 192.565 260.525Z" fill="#2B44FF"/>
<path fill-rule="evenodd" clip-rule="evenodd" d="M121.19 239.23C104.464 274.079 34.0531 250.549 34.0531 250.549C34.0531 244.51 36.4475 238.456 38.9619 232.098C41.6574 225.28 44.4924 218.113 44.6618 210.24C44.9738 195.756 47.6811 151.871 58.9789 137.047C59.1851 136.377 59.3937 135.706 59.6054 135.031L60.3878 135.4C60.5093 135.274 60.6324 135.151 60.7563 135.031L85.4085 138.845C85.4085 149.999 92.5439 160.577 98.9675 170.099C100.53 172.415 102.051 174.669 103.417 176.854C105.205 179.716 107.224 182.629 109.292 185.615C119.768 200.732 131.525 217.698 121.19 239.23Z" fill="#C1DEE2"/>
<path fill-rule="evenodd" clip-rule="evenodd" d="M89.6014 232.643C91.2503 224.131 92.3197 218.449 92.8105 215.596C105.944 230.443 113.531 237.952 115.572 238.124C119.411 238.449 122.247 235.043 123.055 236C124.39 239.965 120.619 249.889 113.412 251.332C109.971 252.022 104.645 244.922 102.451 242.407C101.588 241.417 97.3053 238.162 89.6014 232.643ZM112.288 187.264C115.692 187.264 117.521 188.671 119.534 191.512C121.547 194.353 123.452 207.751 120.22 207.751C116.988 207.751 103.447 202.572 103.447 199.09C103.447 195.608 112.686 194.133 112.686 191.512C112.686 188.891 108.883 187.264 112.288 187.264Z" fill="#B28B67"/>
<path fill-rule="evenodd" clip-rule="evenodd" d="M54.9913 151.524C46.3443 187.588 49.8669 218.004 82.7279 245.594C82.3413 246.98 82.11 247.809 82.11 247.809C43.5382 220.839 43.5194 188.157 54.9913 151.524Z" fill="black" fill-opacity="0.2"/>
<path fill-rule="evenodd" clip-rule="evenodd" d="M322.069 73.4825C316.357 76.9241 310.745 78.5865 308.111 77.9078C301.505 76.2062 300.898 52.0476 306.009 42.5239C311.12 32.9993 337.396 28.8484 338.72 47.7188C339.179 54.2673 336.429 60.1127 332.365 64.8813L339.652 98.8379H318.483L322.069 73.4825Z" fill="#B28B67"/>
<path fill-rule="evenodd" clip-rule="evenodd" d="M318.074 31.5469C320.865 31.0892 328.376 30.7749 329.762 30.7749C330.647 30.7749 331.607 30.9771 332.131 30.1651C332.56 29.4989 332.403 28.3742 332.531 27.6014C332.68 26.7047 332.892 25.819 333.105 24.9357C333.713 22.4221 334.634 20.0308 335.92 17.786C338.336 13.574 341.874 10.2743 346.341 8.35477C351.274 6.23464 356.855 5.74947 362.161 6.17899C367.839 6.63907 372.979 8.51309 378.34 10.2766C383.449 11.957 388.799 12.6178 394.142 11.7979C399.526 10.971 403.594 8.05381 408.134 5.28548C412.782 2.45132 418.095 0.597665 423.59 1.02404C428.72 1.42142 433.448 3.5392 437.689 6.36788C441.662 9.01393 444.931 12.1984 446.782 16.6793C448.773 21.4996 448.765 26.7909 445.496 31.0516C440.76 37.2262 431.957 38.8236 424.635 38.6645C420.4 38.5728 416.241 37.8 412.242 36.3946C406.91 34.519 402.302 31.3416 397.314 28.7629C394.972 27.5528 392.552 26.5589 390.016 25.8433C387.554 25.1489 385.13 24.8299 382.902 26.3159C380.544 27.889 378.431 29.4338 375.734 30.4183C373.147 31.362 370.407 31.8902 367.65 31.8691C362.286 31.8275 357 30.1573 351.791 29.038C347.543 28.1257 342.998 27.2165 338.667 28.0936C336.859 28.4596 334.22 29.2152 333.567 31.0931C344.552 33.0831 348.867 46.6646 345.77 56.6343C344.098 62.0157 334.051 68.3064 330.145 65.4777C327.67 63.6852 329.173 61.3323 330.145 59.7788C332.007 56.8044 332.645 52.9834 329.199 50.9127C326.227 49.1264 323.101 53.3682 323.042 53.3635C322.226 53.2993 315.166 49.3083 310.304 43.4848C305.505 43.7693 304.778 40.6067 305.923 38.0202C307.069 35.4345 314.219 32.1794 318.074 31.5469Z" fill="#191847"/>
<path fill-rule="evenodd" clip-rule="evenodd" d="M353.736 173.297L320.593 281.826L304.539 374.121H291.95L308.915 173.297H353.736Z" fill="#997659"/>
<path fill-rule="evenodd" clip-rule="evenodd" d="M365.593 173.297C363.342 232.885 365.991 263.621 366.494 269.035C366.998 274.449 373.897 309.552 390.23 375.938L376.816 371.324C351.004 310.438 342.208 278.795 339.248 270.799C336.287 262.805 328.424 230.304 315.659 173.297H365.593Z" fill="#B28B67"/>
<path fill-rule="evenodd" clip-rule="evenodd" d="M387.879 370.186C388.717 369.812 389.717 370.185 390.033 371.048C390.68 372.814 391.607 375.617 391.607 377.171C391.607 379.557 390.813 384.135 390.813 384.135C388.049 384.135 341.139 384.135 341.139 384.135C341.139 384.135 339.203 377.723 343.375 377.212C347.546 376.701 350.306 376.289 350.306 376.289L373.484 365.939C373.888 365.759 374.36 365.947 374.529 366.356L376.051 370.054C376.051 370.054 379.913 371.86 382.327 371.86C383.857 371.86 386.297 370.894 387.879 370.186Z" fill="#E4E4E4"/>
<path fill-rule="evenodd" clip-rule="evenodd" d="M305.091 370.186C305.93 369.812 306.929 370.185 307.245 371.048C307.891 372.814 308.819 375.617 308.819 377.171C308.819 379.557 308.025 384.135 308.025 384.135C305.262 384.135 258.351 384.135 258.351 384.135C258.351 384.135 256.414 377.723 260.586 377.212C264.758 376.701 267.518 376.289 267.518 376.289L290.696 365.939C291.1 365.759 291.572 365.947 291.74 366.356L293.263 370.054C293.263 370.054 297.124 371.86 299.539 371.86C301.069 371.86 303.509 370.894 305.091 370.186Z" fill="#E4E4E4"/>
<path fill-rule="evenodd" clip-rule="evenodd" d="M358.14 173.297L344.048 228.591H301.007L307.424 173.297H358.14Z" fill="#69A1AC"/>
<path fill-rule="evenodd" clip-rule="evenodd" d="M366.066 173.297C373.021 194.179 368.708 228.591 368.708 228.591H324.786L312.709 173.297H366.066Z" fill="#89C5CC"/>
<path fill-rule="evenodd" clip-rule="evenodd" d="M413.991 201.109C410.703 196.286 388.539 131.392 388.539 131.392L369.423 134.151C369.423 134.151 401.205 201.727 403.021 204.87C405.38 208.952 403.291 215.659 401.875 220.208C401.655 220.911 401.452 221.563 401.285 222.145C404.258 223.001 405.389 221.303 406.582 219.512C407.929 217.489 409.355 215.349 413.601 216.64C415.241 217.138 416.817 217.779 418.357 218.404C423.675 220.566 428.561 222.551 434.175 217.904C435.064 217.167 435.815 214.759 432.987 213.356C425.942 209.862 415.599 203.466 413.991 201.109ZM249.255 197.755L270.611 170.192L280.824 183.227L257.223 201.979C252.197 213.027 249.024 217.942 247.704 216.722C246.59 215.694 246.847 214.36 247.083 213.131C247.267 212.174 247.439 211.28 246.941 210.645C245.805 209.195 240.766 210.824 236.051 212.575C231.336 214.326 232.126 211.783 232.985 210.393C237.063 206.044 242.486 201.831 249.255 197.755Z" fill="#B28B67"/>
<path fill-rule="evenodd" clip-rule="evenodd" d="M322.647 85.4383L314.912 85.2063C308.914 128.848 251.805 166.046 250.258 182.262C249.69 188.21 254.249 190.535 252.352 192.589L263.177 198.381C264.567 196.211 268.613 199.254 275.674 195.736C282.734 192.219 329.633 135.134 322.647 85.4383Z" fill="#DB2721"/>
<path fill-rule="evenodd" clip-rule="evenodd" d="M335.231 74.7067C336.925 74.347 338.591 75.4286 338.951 77.1224L340.107 82.5548C355.856 91.4734 395.671 119.141 413.387 178.571C415.248 184.814 413.984 188.476 412.975 191.401C412.285 193.403 411.712 195.06 412.341 196.963L399.99 202.307C399.788 200.865 398.014 199.995 395.726 198.874C392.399 197.243 387.984 195.079 385.729 189.845C383.591 184.883 380.615 178.73 377.137 171.908C378.237 181.435 377.661 190.421 374.747 198.205C367.477 217.626 308.024 205.8 299.516 188.225C294.976 178.847 298.299 169.97 302.695 158.231C308.275 143.329 315.583 123.815 310.726 92.8027L308.754 83.5345C308.394 81.8415 309.475 80.1768 311.169 79.817L335.231 74.7067Z" fill="#FF4133"/>
</svg>
