<svg width="24" height="24" viewBox="0 0 24 24" fill="none" xmlns="http://www.w3.org/2000/svg">
<g clip-path="url(#clip0_1_2407)">
<path d="M7.33335 11L6.66669 13.0667H8.00002L7.33335 11Z" fill="#64748B"/>
<path d="M20.2 1.59994H11.5333C10.4288 1.59994 9.53332 2.49537 9.53332 3.59994V6.26661H12.2H3.53333C2.39999 6.26661 1.53333 7.13327 1.53333 8.26661V15.5999C1.53333 16.7333 2.39999 17.5999 3.53333 17.5999H4.19999V20.9999L8.39999 17.5999H10.8667C11.9712 17.5999 12.8667 16.7045 12.8667 15.5999V12.9333H20.2C21.3333 12.9333 22.2 12.0666 22.2 10.9333V3.59994C22.2 2.46661 21.3333 1.59994 20.2 1.59994ZM8.73333 14.8666L8.39999 13.7999H6.33332L5.93332 14.8666H4.33332L6.53332 8.93327H8.13332L10.3333 14.8666H8.73333ZM18.8667 9.59994V10.9333C18 10.9333 17.0667 10.6666 16.2667 10.2666C15.4667 10.6666 14.5333 10.8666 13.6 10.9333L13.5333 9.59994C14 9.59994 14.4667 9.53327 14.9333 9.39994C14.3333 8.79994 13.9333 8.06661 13.7333 7.26661H15.1333C15.3333 7.86661 15.7333 8.33327 16.2 8.73327C16.9333 8.13327 17.4 7.26661 17.4667 6.26661H13.4667V4.93327H15.4667V3.59994H16.8V4.93327H19L19.0667 5.59994C19.1333 6.99994 18.6 8.39994 17.6 9.39994C18.0667 9.53327 18.4667 9.59994 18.8667 9.59994Z" fill="#64748B"/>
</g>
<defs>
<clipPath id="clip0_1_2407">
<rect width="24" height="24" fill="white"/>
</clipPath>
</defs>
</svg>
