<svg width="20" height="20" viewBox="0 0 20 20" fill="none" xmlns="http://www.w3.org/2000/svg">
<path fill-rule="evenodd" clip-rule="evenodd" d="M8.57765 5.46816C8.15222 5.04273 7.40847 4.61503 6.03625 4.95817C4.65931 5.3025 3.64352 6.3284 3.30612 7.59333C2.97497 8.83479 3.2746 10.4111 4.75745 11.8938L9.41376 16.5493C9.73931 16.8748 10.2649 16.8748 10.5904 16.549C11.6361 15.5027 13.2977 13.8403 15.2442 11.8938C16.7263 10.4117 17.0261 8.83529 16.695 7.59359C16.3577 6.32853 15.3421 5.30249 13.9649 4.95819C12.5922 4.615 11.8483 5.04278 11.423 5.46816C11.1903 5.70084 11.0301 5.95882 10.928 6.16305C10.8777 6.26375 10.8435 6.34729 10.8229 6.40198C10.8127 6.4292 10.8061 6.44887 10.8026 6.45948L10.7999 6.46788C10.6958 6.82243 10.3704 7.06638 10.0004 7.0664C9.63041 7.06642 9.30496 6.82252 9.20082 6.46799L9.19813 6.45957C9.19466 6.44896 9.18799 6.42929 9.17778 6.40206C9.15726 6.34736 9.12305 6.26382 9.07268 6.1631C8.97054 5.95886 8.81035 5.70086 8.57765 5.46816ZM10.0003 4.55649C10.0751 4.46717 10.1564 4.37773 10.2445 4.28964C11.0691 3.46502 12.4086 2.85113 14.3691 3.34128C16.3252 3.83031 17.8095 5.30427 18.3054 7.16421C18.8076 9.04752 18.2739 11.2211 16.4227 13.0723C14.4763 15.0187 12.8149 16.6809 11.7693 17.7272C10.7931 18.704 9.21201 18.7045 8.23534 17.7279L3.57904 13.0724C1.7271 11.2207 1.1934 9.04709 1.69575 7.16378C2.19185 5.30393 3.67637 3.83031 5.63193 3.34129C7.59219 2.8511 8.93157 3.46507 9.75616 4.28964C9.84424 4.37773 9.92549 4.46717 10.0003 4.55649Z" fill="white"/>
</svg>
