<svg width="20" height="20" viewBox="0 0 20 20" fill="none" xmlns="http://www.w3.org/2000/svg">
<path fill-rule="evenodd" clip-rule="evenodd" d="M8.57771 5.46814C8.15228 5.04272 7.40853 4.61502 6.03631 4.95816C4.65937 5.30248 3.64358 6.32839 3.30618 7.59331C2.97503 8.83477 3.27466 10.4111 4.75752 11.8938L9.41382 16.5493C9.73937 16.8748 10.265 16.8747 10.5905 16.549C11.6362 15.5027 13.2977 13.8403 15.2442 11.8938C16.7264 10.4117 17.0261 8.83527 16.6951 7.59358C16.3578 6.32852 15.3422 5.30248 13.965 4.95817C12.5923 4.61499 11.8484 5.04276 11.423 5.46814C11.1903 5.70083 11.0302 5.95881 10.9281 6.16303C10.8777 6.26374 10.8435 6.34727 10.823 6.40197C10.8128 6.42919 10.8061 6.44886 10.8027 6.45946L10.8 6.46786C10.6959 6.82242 10.3705 7.06636 10.0005 7.06638C9.63047 7.06641 9.30503 6.82251 9.20088 6.46797L9.19819 6.45955C9.19472 6.44894 9.18805 6.42927 9.17784 6.40205C9.15732 6.34735 9.12311 6.2638 9.07275 6.16309C8.9706 5.95884 8.81041 5.70084 8.57771 5.46814ZM10.0004 4.55648C10.0752 4.46715 10.1564 4.37771 10.2445 4.28963C11.0691 3.46501 12.4086 2.85112 14.3692 3.34127C16.3253 3.83029 17.8096 5.30426 18.3055 7.16419C18.8076 9.0475 18.274 11.2211 16.4228 13.0723C14.4764 15.0187 12.815 16.6809 11.7694 17.7272C10.7932 18.704 9.21207 18.7044 8.2354 17.7279L3.5791 13.0724C1.72716 11.2207 1.19347 9.04707 1.69582 7.16377C2.19191 5.30392 3.67643 3.83029 5.63199 3.34128C7.59226 2.85109 8.93163 3.46505 9.75622 4.28963C9.84431 4.37771 9.92555 4.46715 10.0004 4.55648Z" fill="#191D23"/>
</svg>
