<svg width="16" height="16" viewBox="0 0 16 16" fill="none" xmlns="http://www.w3.org/2000/svg">
<path fill-rule="evenodd" clip-rule="evenodd" d="M2.1441 7.99996C2.52919 8.53106 3.31845 9.5318 4.35774 10.4031C5.43534 11.3065 6.69716 12 7.99995 12C9.30274 12 10.5646 11.3065 11.6422 10.4031C12.6814 9.5318 13.4707 8.53106 13.8558 7.99996C13.4707 7.46886 12.6814 6.46812 11.6422 5.59682C10.5646 4.69339 9.30273 3.99996 7.99995 3.99996C6.69716 3.99996 5.43534 4.69339 4.35774 5.59682C3.31845 6.46812 2.52919 7.46886 2.1441 7.99996ZM3.50113 4.57506C4.67561 3.59041 6.23747 2.66663 7.99995 2.66663C9.76242 2.66663 11.3243 3.59041 12.4988 4.57506C13.6846 5.56925 14.5621 6.69805 14.9675 7.26196C15.2864 7.70554 15.2864 8.29438 14.9675 8.73796C14.5621 9.30187 13.6846 10.4307 12.4988 11.4249C11.3243 12.4095 9.76242 13.3333 7.99995 13.3333C6.23747 13.3333 4.67561 12.4095 3.50113 11.4249C2.31525 10.4307 1.43782 9.30187 1.0324 8.73796C0.713485 8.29438 0.713485 7.70554 1.0324 7.26196C1.43782 6.69805 2.31525 5.56925 3.50113 4.57506Z" fill="#64748B"/>
<path fill-rule="evenodd" clip-rule="evenodd" d="M7.99995 9.33329C8.73633 9.33329 9.33328 8.73634 9.33328 7.99996C9.33328 7.26358 8.73633 6.66663 7.99995 6.66663C7.26357 6.66663 6.66661 7.26358 6.66661 7.99996C6.66661 8.73634 7.26357 9.33329 7.99995 9.33329ZM7.99995 10.6666C9.47271 10.6666 10.6666 9.47272 10.6666 7.99996C10.6666 6.5272 9.47271 5.33329 7.99995 5.33329C6.52719 5.33329 5.33328 6.5272 5.33328 7.99996C5.33328 9.47272 6.52719 10.6666 7.99995 10.6666Z" fill="#64748B"/>
</svg>
