<svg width="75" height="50" viewBox="0 0 75 50" fill="none" xmlns="http://www.w3.org/2000/svg">
<path fill-rule="evenodd" clip-rule="evenodd" d="M37.7707 40.935C37.7676 40.9428 37.7645 40.9507 37.7598 40.9601C37.7645 40.9523 37.7707 40.9209 37.7707 40.935Z" fill="#C5CFD6"/>
<path fill-rule="evenodd" clip-rule="evenodd" d="M37.7638 40.9471C37.7638 40.9487 37.7622 40.9519 37.7622 40.9552C37.7622 40.9471 37.7768 40.9227 37.7638 40.9471Z" fill="#C5CFD6"/>
<path fill-rule="evenodd" clip-rule="evenodd" d="M37.8179 40.8143C37.8069 40.8457 37.7928 40.8756 37.7802 40.9069C37.7865 40.8912 37.7928 40.8787 37.7991 40.863C37.6358 41.2711 37.7394 41.0058 37.8179 40.8143Z" fill="#C5CFD6"/>
<path fill-rule="evenodd" clip-rule="evenodd" d="M37.7829 40.9092C37.7766 40.9234 37.7702 40.9393 37.7639 40.9536C37.7179 41.0424 37.7829 40.9092 37.7829 40.9092Z" fill="#C5CFD6"/>
<path fill-rule="evenodd" clip-rule="evenodd" d="M37.7575 40.9586C37.7481 40.9774 37.8014 40.8864 37.7575 40.9586V40.9586Z" fill="#C5CFD6"/>
<path fill-rule="evenodd" clip-rule="evenodd" d="M37.7637 40.9485L37.7677 40.9445C37.7657 40.9465 37.7657 40.9485 37.7637 40.9485Z" fill="#C5CFD6"/>
<path d="M71.4785 0.189209H3.26807C1.53604 0.189209 0.131958 1.59286 0.131958 3.32434V46.4325C0.131958 48.1639 1.53604 49.5676 3.26807 49.5676H71.4785C73.2105 49.5676 74.6146 48.1639 74.6146 46.4325V3.32434C74.6146 1.59286 73.2105 0.189209 71.4785 0.189209Z" fill="#DDE3E9"/>
<path fill-rule="evenodd" clip-rule="evenodd" d="M28.357 14.2974L6.40417 49.5676H50.3097L28.357 14.2974Z" fill="#AFB9C5"/>
<path fill-rule="evenodd" clip-rule="evenodd" d="M49.9177 23.7028L30.709 49.5676H69.1263L49.9177 23.7028Z" fill="#C5CFD6"/>
<path fill-rule="evenodd" clip-rule="evenodd" d="M58.15 23.7027C62.0474 23.7027 65.2063 20.5448 65.2063 16.6487C65.2063 12.7525 62.0474 9.5946 58.15 9.5946C54.2526 9.5946 51.0938 12.7525 51.0938 16.6487C51.0938 20.5448 54.2526 23.7027 58.15 23.7027Z" fill="white"/>
</svg>
