<svg width="112" height="74" viewBox="0 0 112 74" fill="none" xmlns="http://www.w3.org/2000/svg">
<path fill-rule="evenodd" clip-rule="evenodd" d="M55.741 60.6107C55.7442 60.6185 55.7473 60.6263 55.752 60.6357C55.7473 60.6279 55.741 60.5966 55.741 60.6107Z" fill="#C5CFD6"/>
<path fill-rule="evenodd" clip-rule="evenodd" d="M55.7483 60.6227C55.7483 60.6244 55.7499 60.6276 55.7499 60.6309C55.7499 60.6227 55.7353 60.5984 55.7483 60.6227Z" fill="#C5CFD6"/>
<path fill-rule="evenodd" clip-rule="evenodd" d="M55.694 60.4899C55.705 60.5213 55.7191 60.5511 55.7317 60.5825C55.7254 60.5668 55.7191 60.5542 55.7128 60.5385C55.876 60.9467 55.7724 60.6814 55.694 60.4899Z" fill="#C5CFD6"/>
<path fill-rule="evenodd" clip-rule="evenodd" d="M55.7293 60.5847C55.7357 60.599 55.742 60.6148 55.7483 60.6291C55.7943 60.7179 55.7293 60.5847 55.7293 60.5847Z" fill="#C5CFD6"/>
<path fill-rule="evenodd" clip-rule="evenodd" d="M55.7544 60.6341C55.7105 60.5619 55.7638 60.653 55.7544 60.6341V60.6341Z" fill="#C5CFD6"/>
<path fill-rule="evenodd" clip-rule="evenodd" d="M55.749 60.624L55.7449 60.62C55.7469 60.622 55.747 60.624 55.749 60.624Z" fill="#C5CFD6"/>
<path d="M3.21664 0.270264H108.276C110.008 0.270264 111.412 1.67391 111.412 3.4054V70.8108C111.412 72.5423 110.008 73.9459 108.276 73.9459H3.21664C1.48461 73.9459 0.0805283 72.5423 0.0805283 70.8108V3.4054C0.0805283 1.67391 1.48461 0.270264 3.21664 0.270264Z" fill="#DDE3E9"/>
<path fill-rule="evenodd" clip-rule="evenodd" d="M70.0739 21.4324L102.263 73.9459H37.8856L70.0739 21.4324Z" fill="#AFB9C5"/>
<path fill-rule="evenodd" clip-rule="evenodd" d="M36.886 35.4982L65.3423 73.9459H8.42969L36.886 35.4982Z" fill="#C5CFD6"/>
<path fill-rule="evenodd" clip-rule="evenodd" d="M24.7774 35.5406C18.9317 35.5406 14.1931 30.8034 14.1931 24.9595C14.1931 19.1156 18.9317 14.3784 24.7774 14.3784C30.6231 14.3784 35.3618 19.1156 35.3618 24.9595C35.3618 30.8034 30.6231 35.5406 24.7774 35.5406Z" fill="white"/>
</svg>
