<svg width="131" height="93" viewBox="0 0 131 93" fill="none" xmlns="http://www.w3.org/2000/svg">
<path fill-rule="evenodd" clip-rule="evenodd" d="M127.659 88.6709C120.755 81.5627 113.827 74.5439 106.114 68.2854C101.568 64.5969 96.7777 61.2439 92.0861 57.7467C92.6271 58.2209 93.1579 58.7084 93.6761 59.2084C92.2115 58.2146 90.2946 57.6526 88.7422 56.7324C87.0103 55.7065 85.3544 54.5331 83.7307 53.3496C80.5609 51.0406 77.4389 48.6877 74.1805 46.4994C70.5504 44.061 66.7887 41.8084 63.0967 39.4626C59.9629 37.471 56.7915 35.2913 53.439 33.6641C51.6122 32.7769 49.7815 31.725 47.9469 30.7994C47.333 30.4898 41.1031 26.5576 41.1188 26.5458C41.463 26.2864 44.5983 27.7591 45.0828 27.9566C46.4988 28.5351 47.8536 29.2271 49.2147 29.9161C48.4675 28.4426 47.8763 26.8946 47.5541 25.2643C47.4545 24.7619 46.658 21.0993 47.0656 20.7921C47.2687 20.6392 49.2562 27.1909 49.3582 27.821C49.4413 28.332 49.4287 29.0696 49.5965 29.554C49.867 30.3362 49.8537 30.1003 50.4495 30.5408C51.5417 31.3488 52.9913 31.8536 54.1729 32.5292C54.8111 32.885 56.7845 34.2951 57.9731 34.6972C61.5694 36.4442 65.2151 39.1302 68.6327 41.3609C67.7357 39.6757 67.0529 37.9138 66.5558 36.068C66.4374 35.6291 65.1594 31.6968 65.4699 31.4633C65.8188 31.2007 68.2524 37.2068 68.3967 37.7751C68.664 38.8316 68.7197 40.0073 69.0553 41.0348C69.423 42.1627 70.5716 42.5624 71.6065 43.22C75.4145 45.6388 79.0924 48.2088 82.7083 50.8972C86.6543 43.8815 82.1047 35.4104 78.2708 29.5242C75.5063 25.2823 71.786 21.6448 67.8573 18.4697C62.6137 14.2326 56.6151 10.8466 50.6236 7.74989C43.6426 4.14213 36.0971 1.90677 28.2521 0.873743C24.1493 0.333716 19.9524 0.348628 15.808 0.521844C13.7837 0.606493 11.8401 0.874541 9.90039 1.53449C9.02541 1.83232 8.18022 2.20775 7.35699 2.62786C6.73133 2.94686 5.21739 3.28467 4.8583 3.76043C1.89625 7.61351 0.381499 11.4533 0.612787 16.2955C0.831531 20.8791 2.27962 25.465 4.2444 29.554C6.4334 34.107 9.24806 38.2391 12.9299 41.7065C15.7382 44.3526 18.8783 46.6561 21.9979 48.9283C33.0927 57.0115 47.159 64.042 61.5286 62.2362C66.1803 61.6515 70.6045 60.0251 74.7387 57.8157C75.7133 57.2944 76.6815 56.7677 77.6012 56.1532C78.2214 55.7386 79.8788 53.8709 80.5021 53.8035C81.3575 53.7102 83.1984 55.4486 84.0004 55.9777C90.0955 59.9993 96.0305 64.2395 101.841 68.6507C108.024 73.3447 113.902 78.3571 119.609 83.6053C122.035 85.8383 124.447 88.0752 126.803 90.3827C127.352 90.9195 128.693 92.8962 129.688 92.9864C130.317 93.0428 130.741 92.5059 130.652 91.9236C130.496 90.9125 128.366 89.3982 127.659 88.6709Z" fill="#C1DEE2"/>
</svg>
