<svg width="95" height="39" viewBox="0 0 95 39" fill="none" xmlns="http://www.w3.org/2000/svg">
<path fill-rule="evenodd" clip-rule="evenodd" d="M52.8636 17.9831C51.8036 16.9274 50.6135 15.9743 49.2164 15.2948C48.8628 15.1231 46.2316 13.9717 46.0599 14.2249C45.6608 14.8127 52.5453 17.6461 52.8636 17.9831ZM65.3399 10.9283C65.3312 10.973 66.2439 12.3979 66.4924 12.8361C67.0208 13.768 67.5093 14.7179 67.9687 15.6694C67.289 13.9882 66.5904 12.4293 65.3399 10.9283ZM1.53021 22.5299C0.651314 22.7901 -0.404759 21.7633 0.734433 21.5102C1.65723 21.3072 1.61176 21.2594 2.02573 20.5759C2.36208 20.0202 2.56983 19.343 2.86462 18.7607C3.49028 17.5239 4.20061 16.345 5.07245 15.2407C6.94 12.8729 9.21605 10.8319 11.7688 9.11308C16.2237 6.11197 21.2179 3.37028 26.5164 1.99239C34.9408 -0.198289 44.5294 -0.333882 52.9671 1.18509C58.1927 2.12563 62.969 3.7606 66.4383 7.63406C68.1726 9.56922 69.5344 11.8375 70.1295 14.3346C70.2847 14.9867 70.2557 15.7125 70.4502 16.3521C70.7489 17.3342 70.6172 17.0724 71.8654 17.2636C73.2288 17.4721 74.5906 17.6853 75.9517 17.9024C79.5167 18.4699 83.1028 19.0726 86.576 19.9936C87.7199 20.2969 88.838 20.6668 89.9301 21.0979C90.7557 21.4224 94.0455 22.4437 94.4453 23.432C95.111 25.0756 92.8812 24.3302 92.1889 23.9728C91.5821 23.6585 90.9588 23.3662 90.3269 23.0973C88.7353 22.4194 87.077 21.895 85.3812 21.4773C83.5489 21.0258 81.679 20.6896 79.8162 20.3517C78.0796 20.0374 76.3359 19.7514 74.5898 19.4786C73.62 19.3265 72.6494 19.1792 71.6787 19.0311C71.3471 18.9809 70.763 18.7168 70.8069 19.1134C68.7661 18.7512 66.5591 18.8038 64.4806 18.7035C61.9349 18.582 59.3789 18.4816 56.8246 18.5545C54.9821 18.6078 53.138 18.7191 51.305 18.9464C50.234 19.0797 49.1803 19.2748 48.1289 19.5217C47.5518 19.6573 45.2758 19.9442 44.9614 20.4074C45.0963 20.2083 47.6083 20.4019 47.9282 20.3902C49.2069 20.3463 50.4763 20.2295 51.7503 20.0986C54.115 19.8556 56.4812 19.7286 58.8528 19.7467C58.8442 20.1299 57.2236 20.8126 56.8277 21.0665C55.9409 21.6364 55.0918 22.2579 54.2992 22.9398C52.9036 24.1406 51.2321 25.6274 50.2662 27.05C50.5508 26.6306 51.955 26.0851 52.4528 25.7653C53.251 25.2519 54.0326 24.7041 54.7727 24.1186C55.4556 23.5786 56.093 22.9947 56.7195 22.3982C57.3459 21.8017 58.1966 20.5618 59.0198 20.1644C59.07 20.1401 59.4291 20.4011 59.6329 20.3125C59.8384 20.2232 60.0939 19.7757 60.1465 19.7576C60.9133 19.4857 62.3684 19.8243 63.1744 19.8587C65.2646 19.9473 67.3525 20.0633 69.4403 20.1691C70.0872 20.2013 70.6376 20.0664 70.8814 20.5054C71.1417 20.9741 70.665 22.2054 70.5294 22.7156C70.0252 24.6108 69.1314 26.3108 67.7233 27.7789C65.0874 30.5292 61.8361 32.3625 58.1637 33.5891C44.0974 38.2871 29.1319 40.1682 15.0696 35.2813C9.24819 33.2583 0.480396 29.6427 1.53021 22.5299Z" fill="#89C5CC"/>
</svg>
