<svg width="28" height="28" viewBox="0 0 28 28" fill="none" xmlns="http://www.w3.org/2000/svg">
<ellipse cx="13.9713" cy="14" rx="13.8337" ry="14" fill="#1E293B"/>
<path fill-rule="evenodd" clip-rule="evenodd" d="M14.5729 7.22656C11.0246 7.22656 8.16998 10.1155 8.16998 13.7065C8.16998 16.5684 10.0108 18.9984 12.5453 19.8624C12.8655 19.9164 12.9722 19.7274 12.9722 19.5384C12.9722 19.3764 12.9722 18.9714 12.9722 18.4314C11.1847 18.8364 10.8112 17.5674 10.8112 17.5674C10.5177 16.8114 10.0909 16.6224 10.0909 16.6224C9.50393 16.2174 10.1442 16.2174 10.1442 16.2174C10.7845 16.2714 11.1313 16.8924 11.1313 16.8924C11.6916 17.8914 12.6254 17.5944 12.9989 17.4324C13.0522 17.0004 13.2123 16.7304 13.3991 16.5684C11.9851 16.4064 10.4911 15.8394 10.4911 13.3555C10.4911 12.6535 10.7312 12.0595 11.158 11.6275C11.1047 11.4655 10.8646 10.8175 11.2114 9.89952C11.2114 9.89952 11.745 9.73752 12.9722 10.5745C13.4791 10.4395 14.0394 10.3585 14.5729 10.3585C15.1065 10.3585 15.6668 10.4395 16.1737 10.5745C17.4009 9.73752 17.9345 9.89952 17.9345 9.89952C18.2813 10.7905 18.0679 11.4385 17.9878 11.6275C18.388 12.0865 18.6548 12.6535 18.6548 13.3555C18.6548 15.8394 17.1608 16.3794 15.7201 16.5414C15.9602 16.7304 16.147 17.1354 16.147 17.7294C16.147 18.5934 16.147 19.2954 16.147 19.5114C16.147 19.6734 16.2537 19.8894 16.6005 19.8354C19.135 18.9984 20.9759 16.5684 20.9759 13.7065C20.9759 10.1155 18.1212 7.22656 14.5729 7.22656Z" fill="white"/>
</svg>
