<svg width="29" height="28" viewBox="0 0 29 28" fill="none" xmlns="http://www.w3.org/2000/svg">
<ellipse cx="14.4463" cy="14" rx="13.8337" ry="14" fill="#1E293B"/>
<path d="M14.447 8.44721C16.2343 8.44721 16.4459 8.45398 17.152 8.48656C17.5765 8.49182 17.9969 8.5707 18.3951 8.71979C18.6838 8.83248 18.946 9.00511 19.1649 9.22656C19.3837 9.44802 19.5543 9.71339 19.6656 10.0056C19.8129 10.4085 19.8909 10.8341 19.8961 11.2637C19.928 11.9782 19.935 12.1924 19.935 14.0011C19.935 15.8098 19.9283 16.024 19.8961 16.7385C19.8909 17.1681 19.8129 17.5936 19.6656 17.9966C19.5543 18.2888 19.3837 18.5541 19.1649 18.7756C18.946 18.997 18.6838 19.1697 18.3951 19.2824C17.9969 19.4315 17.5765 19.5103 17.152 19.5156C16.4462 19.5479 16.2346 19.5549 14.447 19.5549C12.6595 19.5549 12.4478 19.5482 11.7421 19.5156C11.3176 19.5103 10.8972 19.4315 10.499 19.2824C10.2103 19.1697 9.94805 18.997 9.72923 18.7756C9.5104 18.5541 9.33982 18.2888 9.22847 17.9966C9.08116 17.5936 9.00321 17.1681 8.99801 16.7385C8.96614 16.024 8.95913 15.8098 8.95913 14.0011C8.95913 12.1924 8.96582 11.9782 8.99801 11.2637C9.00321 10.8341 9.08116 10.4085 9.22847 10.0056C9.33982 9.71339 9.5104 9.44802 9.72923 9.22656C9.94805 9.00511 10.2103 8.83248 10.499 8.71979C10.8972 8.5707 11.3176 8.49182 11.7421 8.48656C12.4482 8.4543 12.6598 8.44721 14.447 8.44721ZM14.447 7.22656C12.6302 7.22656 12.4013 7.2343 11.6873 7.26721C11.1317 7.27839 10.5821 7.38485 10.0617 7.58205C9.61527 7.75226 9.21094 8.019 8.87689 8.36366C8.53602 8.70184 8.27222 9.11127 8.10392 9.56334C7.90906 10.09 7.80387 10.6463 7.79282 11.2085C7.76095 11.9304 7.7533 12.162 7.7533 14.0008C7.7533 15.8395 7.76095 16.0711 7.79346 16.7937C7.80451 17.3559 7.9097 17.9122 8.10456 18.4388C8.27267 18.8908 8.53625 19.3002 8.87689 19.6385C9.21112 19.9832 9.61568 20.25 10.0623 20.4201C10.5827 20.6173 11.1324 20.7238 11.6879 20.7349C12.4019 20.7672 12.6299 20.7756 14.4477 20.7756C16.2655 20.7756 16.4934 20.7679 17.2074 20.7349C17.763 20.7238 18.3127 20.6173 18.833 20.4201C19.2776 20.2457 19.6812 19.9794 20.0182 19.6381C20.3552 19.2968 20.6182 18.8882 20.7902 18.4382C20.985 17.9115 21.0902 17.3553 21.1013 16.793C21.1331 16.0711 21.1408 15.8395 21.1408 14.0008C21.1408 12.162 21.1331 11.9304 21.1006 11.2079C21.0896 10.6456 20.9844 10.0893 20.7895 9.56269C20.6214 9.11068 20.3578 8.70126 20.0172 8.36301C19.683 8.01828 19.2784 7.75153 18.8318 7.5814C18.3114 7.3842 17.7617 7.27775 17.2061 7.26656C16.4928 7.2343 16.2639 7.22656 14.447 7.22656Z" fill="white"/>
<path d="M14.4484 10.5234C13.7686 10.5234 13.104 10.7275 12.5387 11.1097C11.9735 11.492 11.5329 12.0353 11.2727 12.6709C11.0125 13.3066 10.9445 14.006 11.0771 14.6808C11.2097 15.3556 11.5371 15.9755 12.0178 16.462C12.4986 16.9485 13.1111 17.2798 13.7778 17.414C14.4446 17.5482 15.1358 17.4794 15.7639 17.2161C16.392 16.9528 16.9288 16.5069 17.3065 15.9348C17.6842 15.3627 17.8858 14.6902 17.8858 14.0021C17.8858 13.0795 17.5237 12.1947 16.8791 11.5423C16.2344 10.8899 15.3601 10.5234 14.4484 10.5234ZM14.4484 16.2602C14.0071 16.2602 13.5758 16.1278 13.2088 15.8797C12.8419 15.6315 12.5559 15.2789 12.387 14.8663C12.2182 14.4537 12.174 13.9996 12.2601 13.5616C12.3462 13.1236 12.5587 12.7213 12.8707 12.4055C13.1828 12.0897 13.5803 11.8746 14.0132 11.7875C14.446 11.7003 14.8946 11.7451 15.3023 11.916C15.71 12.0869 16.0585 12.3763 16.3037 12.7476C16.5488 13.119 16.6797 13.5555 16.6797 14.0021C16.6797 14.601 16.4446 15.1754 16.0262 15.5988C15.6077 16.0223 15.0402 16.2602 14.4484 16.2602Z" fill="white"/>
<path d="M18.021 11.1981C18.4646 11.1981 18.8242 10.8341 18.8242 10.3852C18.8242 9.93621 18.4646 9.57227 18.021 9.57227C17.5773 9.57227 17.2177 9.93621 17.2177 10.3852C17.2177 10.8341 17.5773 11.1981 18.021 11.1981Z" fill="white"/>
</svg>
