<svg width="16" height="16" viewBox="0 0 16 16" fill="none" xmlns="http://www.w3.org/2000/svg">
<path fill-rule="evenodd" clip-rule="evenodd" d="M15.68 8.1819C15.68 7.61462 15.6291 7.06917 15.5345 6.54553H8V9.64008H12.3055C12.12 10.6401 11.5564 11.4873 10.7091 12.0546V14.0619H13.2945C14.8073 12.6692 15.68 10.6183 15.68 8.1819Z" fill="#191D23"/>
<path fill-rule="evenodd" clip-rule="evenodd" d="M7.99992 15.9999C10.1599 15.9999 11.9708 15.2835 13.2945 14.0617L10.709 12.0544C9.99265 12.5344 9.07629 12.8181 7.99992 12.8181C5.91629 12.8181 4.15265 11.4108 3.52356 9.5199H0.85083V11.5926C2.16719 14.2072 4.87265 15.9999 7.99992 15.9999Z" fill="#191D23"/>
<path fill-rule="evenodd" clip-rule="evenodd" d="M3.52364 9.52008C3.36364 9.04008 3.27273 8.52735 3.27273 8.00008C3.27273 7.4728 3.36364 6.96008 3.52364 6.48008V4.40735H0.850909C0.309091 5.48735 0 6.70917 0 8.00008C0 9.29099 0.309091 10.5128 0.850909 11.5928L3.52364 9.52008Z" fill="#191D23"/>
<path fill-rule="evenodd" clip-rule="evenodd" d="M7.99992 3.18182C9.17447 3.18182 10.229 3.58545 11.0581 4.37818L13.3526 2.08364C11.9672 0.792727 10.1563 0 7.99992 0C4.87265 0 2.16719 1.79273 0.85083 4.40727L3.52356 6.48C4.15265 4.58909 5.91629 3.18182 7.99992 3.18182Z" fill="#191D23"/>
</svg>
