<svg width="32" height="32" viewBox="0 0 32 32" fill="none" xmlns="http://www.w3.org/2000/svg">
<path fill-rule="evenodd" clip-rule="evenodd" d="M0.498657 16.3087C0.498657 7.57814 7.55648 0.432373 16.1792 0.432373V16.3087L5.46312 27.8648C2.41482 25.0393 0.498657 20.8946 0.498657 16.3087Z" fill="#F2F2F2"/>
<path fill-rule="evenodd" clip-rule="evenodd" d="M15.7644 16.108H31.5994C31.5994 20.2002 29.9295 24.0344 27.2896 26.8208C24.3864 29.8681 20.2522 31.7837 15.7644 31.7837C11.6303 31.7837 7.84654 30.1307 4.9425 27.5176L15.7644 16.108Z" fill="#AFB9C5"/>
<path fill-rule="evenodd" clip-rule="evenodd" d="M31.8598 16.108C31.8598 7.48799 24.802 0.432373 16.1792 0.432373V16.108H31.8598ZM8.33893 0.432373L14.6112 14.5405L0.498657 8.27021C1.89423 4.61308 5.02799 1.82751 8.33893 0.432373Z" fill="#C5CFD6"/>
</svg>
