<svg width="108" height="219" viewBox="0 0 108 219" fill="none" xmlns="http://www.w3.org/2000/svg">
<path fill-rule="evenodd" clip-rule="evenodd" d="M8.46463 28.4147C23.0993 52.9597 40.1449 76.7255 50.3811 103.562C49.9687 100.398 49.5312 97.238 49.0412 94.0833C46.4445 77.3565 43.2159 60.7521 39.8242 44.168C38.097 35.7243 36.2694 27.3103 34.3956 18.898C33.3881 14.3795 32.3924 9.85861 31.3637 5.3448C31.1144 4.25064 30.9004 2.34056 30.5891 0.405396C40.5369 33.0398 50.1302 65.6985 57.1473 99.1167C58.0677 103.503 58.8517 107.881 59.4939 112.251C59.7134 111.254 59.9298 110.257 60.1658 109.263C63.0055 97.3438 67.2644 85.5196 72.3355 74.3742C74.7597 69.0453 77.5438 63.8323 80.8226 58.9744C82.8673 55.9467 87.6891 52.3476 89.5535 49.2461C79.3541 67.9488 75.6707 91.3494 69.7811 111.682C68.344 116.644 66.8974 121.597 65.4799 126.559C74.3614 108.753 88.1415 94.1232 107.301 87.7839C84.1092 103.102 70.199 129.929 60.8251 157.366C60.7946 157.691 60.7577 158.016 60.7256 158.343C63.4846 153.109 66.9586 148.375 71.6675 145.061C81.7469 137.963 92.9272 140.03 102.704 146.119C95.0307 141.243 81.1636 145.683 74.7072 150.639C70.0853 154.186 66.1354 158.945 62.7052 163.589C61.8836 164.702 60.7617 166.001 59.577 167.386C57.9164 178.164 55.2099 188.868 51.3776 199.486C52.0103 196.438 51.5532 191.564 51.7289 189.292C51.7477 189.046 51.7633 188.8 51.7822 188.555C51.1996 190.88 50.6367 193.178 50.095 195.44C51.1722 191.124 51.7571 186.619 52.2142 182.068C52.3318 180.112 52.447 178.156 52.5678 176.2C52.5294 172.487 52.3765 168.761 52.1177 165.028C51.2012 161.401 50.1741 157.979 49.3266 155.133C46.2712 144.865 41.7905 135.028 36.2765 125.851C31.2454 117.476 25.2225 109.891 18.2705 103.03C14.522 99.3322 10.5996 95.8115 6.73273 92.2413C5.33402 90.9504 2.83454 87.7769 0.672974 86.1223C16.4163 94.7996 32.6213 104.186 44.1066 118.167C42.7596 112.998 41.2974 107.902 39.7505 102.909C31.9016 77.5721 21.9915 51.3145 8.46463 28.4147Z" fill="#DDE3E9"/>
<path fill-rule="evenodd" clip-rule="evenodd" d="M24.1938 167.351C24.1938 195.488 26.4228 218.297 56.339 218.297C86.2551 218.297 88.4841 195.488 88.4841 167.351" fill="#C5CFD6"/>
</svg>
