<svg width="236" height="250" viewBox="0 0 236 250" fill="none" xmlns="http://www.w3.org/2000/svg">
<path d="M125.293 132.163C125.53 134.833 120.568 136.295 117.996 132.163C115.216 128.513 117.26 120.037 125.293 117.59C132.859 114.693 144.831 120.254 147.184 132.163C150.182 143.614 141.129 159.062 125.293 161.311C109.949 164.406 90.935 151.872 88.808 132.163C85.584 112.935 101.679 90.469 125.293 88.442C148.449 85.125 174.445 104.672 176.372 132.163C179.801 159.173 156.719 188.654 125.293 190.458C94.3311 193.997 61.33 167.432 59.62 132.163C55.979 97.353 86.0611 60.895 125.293 59.295C164.03 55.556 204.078 89.094 205.56 132.163C209.424 174.751 172.314 218.227 125.293 219.605C78.7451 223.566 31.711 183.014 30.432 132.163C26.369 81.794 70.4621 31.309 125.293 30.147C179.634 25.965 233.692 73.535 234.748 132.163C239.038 190.333 187.913 247.795 125.293 248.753C63.1641 253.139 2.07804 198.591 1.24404 132.163C-3.24996 66.216 54.8711 1.736 125.293 1" stroke="#005DE9" stroke-linecap="round"/>
</svg>
