<svg width="116" height="23" viewBox="0 0 116 23" fill="none" xmlns="http://www.w3.org/2000/svg">
<path d="M10.2408 4.44434C10.5795 3.40169 12.0546 3.40169 12.3934 4.44434L13.6038 8.16969C13.7553 8.63597 14.1899 8.95167 14.6801 8.95167H18.5972C19.6935 8.95167 20.1493 10.3546 19.2624 10.9989L16.0934 13.3013C15.6968 13.5895 15.5308 14.1003 15.6823 14.5666L16.8928 18.292C17.2315 19.3346 16.0382 20.2016 15.1512 19.5572L11.9823 17.2549C11.5856 16.9667 11.0485 16.9667 10.6519 17.2549L7.48291 19.5572C6.59598 20.2016 5.40262 19.3346 5.74139 18.292L6.95183 14.5666C7.10334 14.1003 6.93736 13.5895 6.54072 13.3013L3.37175 10.9989C2.48482 10.3546 2.94064 8.95167 4.03695 8.95167H7.95401C8.44429 8.95167 8.87882 8.63597 9.03032 8.16969L10.2408 4.44434Z" fill="#F59E0B"/>
<path d="M33.5821 4.44434C33.9208 3.40169 35.3959 3.40169 35.7347 4.44434L36.9451 8.16969C37.0966 8.63597 37.5312 8.95167 38.0215 8.95167H41.9385C43.0348 8.95167 43.4906 10.3546 42.6037 10.9989L39.4347 13.3013C39.0381 13.5895 38.8721 14.1003 39.0236 14.5666L40.2341 18.292C40.5728 19.3346 39.3795 20.2016 38.4925 19.5572L35.3236 17.2549C34.9269 16.9667 34.3898 16.9667 33.9932 17.2549L30.8242 19.5572C29.9373 20.2016 28.7439 19.3346 29.0827 18.292L30.2931 14.5666C30.4446 14.1003 30.2787 13.5895 29.882 13.3013L26.7131 10.9989C25.8261 10.3546 26.282 8.95167 27.3783 8.95167H31.2953C31.7856 8.95167 32.2201 8.63597 32.3716 8.16969L33.5821 4.44434Z" fill="#F59E0B"/>
<path d="M56.9234 4.44434C57.2622 3.40169 58.7372 3.40169 59.076 4.44434L60.2864 8.16969C60.438 8.63597 60.8725 8.95167 61.3628 8.95167H65.2798C66.3761 8.95167 66.8319 10.3546 65.945 10.9989L62.7761 13.3013C62.3794 13.5895 62.2134 14.1003 62.3649 14.5666L63.5754 18.292C63.9142 19.3346 62.7208 20.2016 61.8339 19.5572L58.6649 17.2549C58.2682 16.9667 57.7311 16.9667 57.3345 17.2549L54.1655 19.5572C53.2786 20.2016 52.0852 19.3346 52.424 18.292L53.6344 14.5666C53.786 14.1003 53.62 13.5895 53.2233 13.3013L50.0544 10.9989C49.1674 10.3546 49.6233 8.95167 50.7196 8.95167H54.6366C55.1269 8.95167 55.5614 8.63597 55.7129 8.16969L56.9234 4.44434Z" fill="#F59E0B"/>
<path d="M80.2655 4.44434C80.6043 3.40169 82.0794 3.40169 82.4182 4.44434L83.6286 8.16969C83.7801 8.63597 84.2146 8.95167 84.7049 8.95167H88.622C89.7183 8.95167 90.1741 10.3546 89.2872 10.9989L86.1182 13.3013C85.7216 13.5895 85.5556 14.1003 85.7071 14.5666L86.9175 18.292C87.2563 19.3346 86.063 20.2016 85.176 19.5572L82.0071 17.2549C81.6104 16.9667 81.0733 16.9667 80.6767 17.2549L77.5077 19.5572C76.6208 20.2016 75.4274 19.3346 75.7662 18.292L76.9766 14.5666C77.1281 14.1003 76.9621 13.5895 76.5655 13.3013L73.3965 10.9989C72.5096 10.3546 72.9654 8.95167 74.0617 8.95167H77.9788C78.4691 8.95167 78.9036 8.63597 79.0551 8.16969L80.2655 4.44434Z" fill="#F59E0B"/>
<path d="M103.607 4.44434C103.946 3.40169 105.421 3.40169 105.759 4.44434L106.97 8.16969C107.121 8.63597 107.556 8.95167 108.046 8.95167H111.963C113.06 8.95167 113.515 10.3546 112.628 10.9989L109.46 13.3013C109.063 13.5895 108.897 14.1003 109.048 14.5666L110.259 18.292C110.598 19.3346 109.404 20.2016 108.517 19.5572L105.348 17.2549C104.952 16.9667 104.415 16.9667 104.018 17.2549L100.849 19.5572C99.9621 20.2016 98.7687 19.3346 99.1075 18.292L100.318 14.5666C100.469 14.1003 100.303 13.5895 99.9068 13.3013L96.7378 10.9989C95.8509 10.3546 96.3067 8.95167 97.403 8.95167H101.32C101.81 8.95167 102.245 8.63597 102.396 8.16969L103.607 4.44434Z" fill="#F59E0B"/>
</svg>
