<svg width="84" height="59" viewBox="0 0 84 59" fill="none" xmlns="http://www.w3.org/2000/svg">
<path fill-rule="evenodd" clip-rule="evenodd" d="M80.7053 1.61308C80.2819 1.30898 79.294 1.20158 78.8315 1.10987C76.9106 0.732089 74.9349 0.567505 72.9748 0.567505C66.9456 0.57691 60.8145 1.16867 54.8873 2.19308C51.1161 2.84283 46.5687 5.03193 42.8203 3.84293C36.294 1.77217 29.698 1.87407 23.5058 4.8305C17.8443 7.53377 13.547 12.6683 11.0389 18.216C10.6602 19.0538 9.12513 22.1365 8.69077 24.2143C8.50496 24.6391 8.32621 25.0662 8.16549 25.5005C7.70919 26.7333 7.29912 27.9874 6.91886 29.2446C6.75579 29.7807 6.34732 30.9642 6.83263 31.1931C6.05723 32.625 5.36886 34.1001 4.79652 35.623C3.13046 40.053 1.3084 44.9124 0.722728 49.6073C0.506336 51.3457 0.497689 53.0944 0.699184 54.8359C0.798756 55.6973 0.75801 57.4279 1.34133 58.0831C2.58088 59.472 3.21671 57.5274 3.07716 56.601C2.01088 49.5422 4.07052 42.913 6.5112 36.2775C8.09023 31.987 10.6838 28.0611 13.5894 24.5066C15.9407 21.6286 18.4629 19.3626 21.686 17.4549C25.6281 15.1216 29.8423 13.2358 34.0173 11.3437C36.7637 10.0991 39.5133 8.88738 42.3358 7.81516C42.9638 7.57611 43.9509 6.96396 44.6471 6.96161C46.1218 6.9569 48.2074 8.04245 49.6265 8.4461C54.2993 9.7754 59.0348 11.477 63.8722 12.1558C66.9691 12.5915 69.8779 12.1009 72.7709 11.0686C73.0689 10.9636 73.5628 10.6924 74.1744 10.3052C76.3305 9.47757 78.3611 8.43591 80.133 6.93261C81.16 6.06732 82.0852 4.94808 82.9319 3.92368C83.1828 3.618 83.2926 3.26686 83.3005 2.93297C83.4886 2.83343 83.614 2.71585 83.6454 2.57947C83.8571 1.57152 81.9362 1.55352 80.7053 1.61308Z" fill="#89C5CC"/>
</svg>
