<svg width="83" height="167" viewBox="0 0 83 167" fill="none" xmlns="http://www.w3.org/2000/svg">
<path d="M12.514 0.631958L0.499023 13.107L17.31 17.275L12.514 0.631958ZM68.315 164.118C67.494 163.574 66.653 162.991 65.794 162.371L64.038 164.803C64.927 165.446 65.802 166.051 66.657 166.618L68.315 164.118ZM60.926 158.585C59.401 157.315 57.853 155.945 56.301 154.48L54.242 156.661C55.838 158.169 57.433 159.58 59.005 160.89L60.926 158.585ZM51.933 150.097C50.549 148.622 49.179 147.074 47.837 145.457L45.529 147.373C46.911 149.038 48.321 150.632 49.746 152.15L51.933 150.097ZM44.044 140.583C42.845 138.937 41.684 137.234 40.574 135.476L38.037 137.077C39.185 138.894 40.383 140.652 41.619 142.349L44.044 140.583ZM37.463 130.145C36.499 128.348 35.593 126.503 34.756 124.612L32.013 125.827C32.882 127.79 33.821 129.703 34.82 131.564L37.463 130.145ZM32.491 118.892C31.82 116.97 31.223 115.008 30.711 113.007L27.805 113.75C28.339 115.837 28.96 117.882 29.659 119.882L32.491 118.892ZM29.459 107.003C29.136 105.003 28.9 102.97 28.761 100.904L25.768 101.105C25.913 103.266 26.16 105.392 26.497 107.482L29.459 107.003ZM28.64 94.782C28.695 92.767 28.845 90.724 29.097 88.656L26.119 88.293C25.855 90.455 25.698 92.591 25.641 94.7L28.64 94.782ZM30.116 82.619C30.539 80.659 31.057 78.677 31.675 76.675L28.809 75.79C28.165 77.874 27.625 79.941 27.184 81.987L30.116 82.619ZM33.735 70.867C34.478 69.011 35.31 67.14 36.236 65.254L33.542 63.932C32.584 65.885 31.722 67.825 30.95 69.751L33.735 70.867ZM39.142 59.818C39.656 58.93 40.191 58.039 40.748 57.145L38.202 55.558C37.628 56.48 37.076 57.399 36.545 58.315L39.142 59.818ZM40.748 57.145C41.305 56.251 41.856 55.392 42.402 54.565L39.898 52.912C39.337 53.762 38.772 54.644 38.202 55.558L40.748 57.145ZM45.793 49.754C47.068 48.069 48.31 46.569 49.516 45.243L47.298 43.224C46.023 44.624 44.724 46.195 43.4 47.944L45.793 49.754ZM53.642 41.251C55.299 39.872 56.864 38.849 58.331 38.132L57.013 35.437C55.295 36.277 53.531 37.44 51.723 38.945L53.642 41.251ZM63.439 36.761C65.219 36.713 66.856 37.162 68.366 38.032L69.863 35.432C67.906 34.305 65.725 33.698 63.357 33.762L63.439 36.761ZM72.359 41.633C73.436 43.009 74.41 44.639 75.269 46.471L77.985 45.198C77.049 43.201 75.962 41.369 74.721 39.784L72.359 41.633ZM77.297 51.878C77.833 53.685 78.272 55.585 78.611 57.538L81.567 57.025C81.209 54.966 80.744 52.952 80.174 51.026L77.297 51.878ZM79.309 63.338C79.443 65.288 79.479 67.246 79.413 69.175L82.411 69.278C82.48 67.243 82.443 65.182 82.302 63.132L79.309 63.338ZM78.886 74.976C78.587 76.954 78.166 78.847 77.624 80.612L80.492 81.493C81.083 79.571 81.533 77.531 81.852 75.425L78.886 74.976ZM75.434 85.835C74.468 87.554 73.339 88.994 72.056 90.108L74.022 92.373C75.613 90.993 76.947 89.265 78.049 87.306L75.434 85.835ZM67.433 92.51C66.611 92.703 65.734 92.805 64.798 92.803L64.792 95.803C65.951 95.805 67.061 95.679 68.118 95.431L67.433 92.51ZM64.798 92.803C63.887 92.801 62.974 92.74 62.061 92.623L61.68 95.599C62.714 95.731 63.751 95.8 64.792 95.803L64.798 92.803ZM56.695 91.307C54.998 90.696 53.305 89.904 51.624 88.947L50.139 91.554C51.955 92.587 53.803 93.454 55.678 94.129L56.695 91.307ZM46.915 85.817C45.445 84.7 43.994 83.464 42.566 82.123L40.512 84.309C42.009 85.716 43.54 87.019 45.1 88.205L46.915 85.817ZM38.559 78.014C37.303 76.616 36.074 75.141 34.875 73.599L32.506 75.441C33.746 77.035 35.021 78.565 36.328 80.019L38.559 78.014ZM31.475 68.931C30.4 67.358 29.358 65.735 28.351 64.071L25.784 65.624C26.819 67.334 27.891 69.003 28.997 70.623L31.475 68.931ZM25.485 59.044C24.575 57.35 23.702 55.624 22.87 53.877L20.161 55.166C21.014 56.957 21.908 58.726 22.842 60.463L25.485 59.044ZM20.507 48.589C19.759 46.803 19.056 45.004 18.4 43.198L15.58 44.222C16.252 46.073 16.973 47.918 17.739 49.748L20.507 48.589ZM16.558 37.706C15.985 35.845 15.467 33.986 15.006 32.14L12.095 32.866C12.57 34.766 13.103 36.677 13.69 38.588L16.558 37.706ZM13.77 26.495C13.41 24.571 13.118 22.671 12.9 20.808L9.91998 21.157C10.147 23.093 10.449 25.06 10.822 27.048L13.77 26.495ZM12.456 15.077C12.388 13.112 12.414 11.207 12.538 9.37598L9.54498 9.17297C9.41298 11.116 9.38701 13.124 9.45801 15.182L12.456 15.077Z" fill="#FF4766"/>
</svg>
